<?xml version="1.0" encoding="UTF-8"?> <svg xmlns="http://www.w3.org/2000/svg" width="28" height="28" viewBox="0 0 28 28"><circle cx="14" cy="14" r="14" fill="#232a2f" stroke-width=".98741"></circle><path d="m5.0757 17.57c.05099-.08146.13254-.08659.24468-.01521 2.5489 1.4784 5.3221 2.2174 8.3195 2.2174 1.9983 0 3.9712-.37216 5.9185-1.1164.05095-.02044.12481-.05095.22167-.09173.09687-.04078.16569-.07139.20647-.09173.15295-.06122.27272-.03061.35942.09173.0866.12234.05855.23451-.08413.33641-.18356.13261-.41807.28546-.70353.45885-.87682.51997-1.8555.92264-2.9363 1.2082-1.0807.28546-2.136.42814-3.1657.42814-1.5905 0-3.0943-.27786-4.5115-.83347-1.4172-.55562-2.6865-1.3381-3.808-2.3475-.06119-.05105-.09174-.102-.09174-.15295 0-.03061.010229-.06122.03062-.09183zm13.657.26008c.02034-.04078.05095-.08156.09173-.12234.25485-.17339.49963-.2906.73404-.35181.38746-.1019.76465-.15799 1.1318-.16816.1019-.01027.19877-.0051.2905.0153.45885.04078.73404.1172.82587.22938.04078.06122.06122.15295.06122.27529v.10704c0 .35685-.09696.77739-.2906 1.2617-.19373.48423-.46389.87425-.81057 1.1699-.05095.04078-.09686.06122-.13764.06122-.02034 0-.04078-.0051-.06112-.01531-.06122-.03061-.07653-.08669-.04592-.16826.37719-.88699.56588-1.5038.56588-1.8505 0-.11217-.02044-.19373-.06122-.24468-.102-.12234-.38746-.18346-.85648-.18346-.17329 0-.37719.01017-.6117.03051-.25485.03061-.48936.06122-.70343.09183-.06122 0-.102-.01027-.12234-.03061-.02044-.02044-.02557-.04078-.0153-.06122 0-.01017.0051-.02548.0153-.04582z" fill="#f4a125" stroke-width=".98741"></path><path d="m13.657 9.7723c-.80543.10187-1.4833.27022-2.0336.50454-.60143.25495-1.0754.63214-1.422 1.1315-.34658.49943-.51988 1.1009-.51988 1.8042 0 .8867.25229 1.5725.75686 2.0568.50457.48432 1.1494.72614 1.9343.72614.5098 0 .93794-.05095 1.2845-.15305.55058-.15305 1.1113-.54021 1.6822-1.1622.04078.05085.11227.15038.21407.2983.1018.14782.17596.24705.22158.2983.04601.05085.12244.13251.22948.24478.10704.11227.23204.22938.37462.35182.17329.07149.3212.06102.44354-.03071.07149-.06102.53004-.45885 1.3763-1.1925.08166-.06102.12244-.13251.12244-.21417 0-.07149-.03071-.15305-.09173-.24478-.16322-.21407-.28033-.36939-.35181-.46635-.07149-.09686-.14525-.25485-.22158-.47386-.07643-.2193-.11454-.46112-.11454-.72614v-3.7007c0-.0408-.0052-.17069-.0154-.39001-.01007-.21931-.02548-.36194-.04601-.42819-.02024-.066245-.05085-.18603-.09173-.35933-.040788-.17329-.086801-.3058-.13765-.39751-.050951-.091701-.11977-.19614-.20666-.31331-.085806-.11651-.1804-.22649-.28289-.32865-.65278-.60182-1.56-.90239-2.7219-.90239h-.38223c-.90723.050911-1.6996.29568-2.3775.73399-.67825.43831-1.1038 1.1109-1.2771 2.0182-.010072.04079-.015305.076366-.015305.10705 0 .14262.086497.23433.25979.27512l1.7585.2141c.16312-.030679.26492-.14784.3058-.35182.07139-.32603.22938-.58092.47386-.76467.24478-.18341.53518-.29047.87169-.32115h.12244c.45885 0 .79496.15307 1.009.45887.14268.22421.21417.66252.21417 1.3149v.25979c-.62177.050911-1.0705.091711-1.3456.12239zm1.3456 1.6974c0 .32604-.0027.56065-.0075.70333-.0052.14258-.03565.32861-.09173.55808-.05618.22938-.14001.44088-.25228.63441-.23431.43831-.56588.7134-.99383.82567-.02014 0-.05865.0052-.11454.0154-.05608.01007-.09953.01531-.12984.01531-.33651 0-.6041-.11977-.80286-.35932s-.2983-.55808-.2983-.95562c0-.87662.44838-1.4425 1.3455-1.6974.3059-.08166.75428-.12244 1.3456-.12244v.38223z" fill="#fff" stroke-width=".98741"></path></svg> 