<svg width="96" height="96" viewBox="0 0 96 96" fill="none" xmlns="http://www.w3.org/2000/svg">
	<circle cx="48" cy="48" r="47.5" fill="#fff"/>
	<circle cx="48" cy="48" r="47.5" fill="url(#a)" fill-opacity=".9"/>
	<circle cx="48" cy="48" r="47.5" stroke="#edf4fb"/>
	<path d="m46.068 47.67v7.1386h-2.1293v-17.628h5.6449c1.4307 0 2.6506.5074 3.6487 1.5222 1.0204 1.0147 1.5305 2.2536 1.5305 3.7167 0 1.4985-.5101 2.7374-1.5305 3.7403-.987 1.0029-2.2069 1.4985-3.6487 1.4985h-3.5156zm0-8.3184v6.1474h3.56c.8429 0 1.5527-.3068 2.1071-.9086.5657-.6018.854-1.3333.854-2.1592 0-.8142-.2883-1.534-.854-2.1357-.5545-.6254-1.2531-.9321-2.1071-.9321h-3.56zm14.262 2.997c1.5748 0 2.817.4484 3.7263 1.3451.9095.8967 1.3641 2.1238 1.3641 3.6814v7.4335h-2.0295v-1.6754h-.0887c-.8762 1.3805-2.0517 2.0648-3.5156 2.0648-1.2532 0-2.2958-.3894-3.1386-1.1799-.8428-.7906-1.2643-1.77-1.2643-2.9498 0-1.2507.4437-2.2418 1.3309-2.9734.8873-.7433 2.0739-1.1091 3.5489-1.1091 1.2643 0 2.3068.2478 3.1164.7433v-.5191c0-.7906-.2883-1.4513-.8762-2.0059-.5878-.5545-1.2753-.8259-2.0628-.8259-1.1867 0-2.1293.5309-2.8169 1.6047l-1.8744-1.2507c1.0315-1.5931 2.562-2.3836 4.5804-2.3836zm-2.7503 8.755c0 .59.2329 1.0856.7097 1.4749.4658.3894 1.0204.59 1.6525.59.8983 0 1.6968-.354 2.3955-1.062.6988-.708 1.0536-1.5339 1.0536-2.4896-.6655-.5546-1.5859-.8378-2.7726-.8378-.865 0-1.5859.2242-2.1626.6607-.5878.4602-.8761 1.0149-.8761 1.6638zm19.419-8.3657-7.0978 17.368h-2.1959l2.6395-6.0766-4.6801-11.292h2.3178l3.3715 8.6606h.0444l3.2827-8.6606z" fill="#383e41"/>
	<path d="m37.427 44.105h-8.9259v3.894l5.1406.0012c-.2085 1.2956-.8795 2.4-1.9076 3.1364v7e-4l.0011-7e-4-.0925 2.3273 3.1525.1978-.0012.0012c1.7867-1.7593 2.8105-4.36 2.8105-7.4326 6e-4-.7127-.0589-1.4239-.1775-2.1253z" fill="#0085f7"/>
	<path d="m31.732 51.136-.0012 7e-4c-.8516.6107-1.9481.968-3.2307.968-2.4788 0-4.5816-1.777-5.3346-4.1724h-4e-4l4e-4.0012-2.6319-.4434-.5241 3.0484c1.564 3.3012 4.7778 5.5663 8.4907 5.5663 2.5657 0 4.7213-.8975 6.2906-2.4426 5e-4-3e-4 9e-4-7e-4.0013-.0012z" fill="#00a94b"/>
	<path d="m22.871 45.999c0-.6726.1053-1.3227.2972-1.934l-.8218-2.6054h-2.3347c-.6465 1.3653-1.0103 2.9063-1.0103 4.5394s.3649 3.1741 1.0103 4.5394l5e-4-4e-4 3.156-2.605c-.1965-.6234-.2969-1.2765-.2972-1.934z" fill="#fb0"/>
	<path d="m28.5 35.894c-3.7121 0-6.9273 2.2655-8.4912 5.5672l3.1564 2.6054c.7531-2.3953 2.8559-4.1724 5.3347-4.1724 1.4007 0 2.6552.5134 3.6456 1.5163l2.7117-2.8826c-1.6469-1.6322-3.7941-2.6339-6.3572-2.6339z" fill="#ff4031"/>
	<defs>
		<linearGradient id="a" x1="48" x2="48" y2="96" gradientUnits="userSpaceOnUse">
			<stop stop-color="#fff" offset="0"/>
			<stop stop-color="#F5F9FF" offset="1"/>
		</linearGradient>
	</defs>
</svg>
